<svg xmlns="http://www.w3.org/2000/svg" width="35" height="26.25" viewBox="0 0 35 26.25">
  <path id="account-multiple-outline" d="M21.372,15.218a8.75,8.75,0,0,0,0-10.185A5.933,5.933,0,0,1,24.75,4a6.125,6.125,0,0,1,0,12.25,5.933,5.933,0,0,1-3.378-1.033M8.125,10.125A6.125,6.125,0,1,1,14.25,16.25a6.125,6.125,0,0,1-6.125-6.125m3.5,0A2.625,2.625,0,1,0,14.25,7.5a2.625,2.625,0,0,0-2.625,2.625M26.5,26.75v3.5H2v-3.5s0-7,12.25-7,12.25,7,12.25,7m-3.5,0c-.245-1.365-2.328-3.5-8.75-3.5s-8.628,2.293-8.75,3.5m20.913-7a9.31,9.31,0,0,1,3.588,7v3.5h7v-3.5s0-6.352-10.605-7Z" transform="translate(-2 -4)" fill="#f37535"/>
</svg>
