<svg xmlns="http://www.w3.org/2000/svg" width="30" height="33.333" viewBox="0 0 30 33.333">
  <path id="clipboard-text_3_" data-name="clipboard-text (3)" d="M26.333,14.333H9.667V11H26.333m0,10H9.667V17.667H26.333m-5,10H9.667V24.333H21.333M18,4.333A1.667,1.667,0,1,1,16.333,6,1.667,1.667,0,0,1,18,4.333m11.667,0H22.7a4.98,4.98,0,0,0-9.4,0H6.333A3.333,3.333,0,0,0,3,7.667V31a3.333,3.333,0,0,0,3.333,3.333H29.667A3.333,3.333,0,0,0,33,31V7.667A3.333,3.333,0,0,0,29.667,4.333Z" transform="translate(-3 -1)" fill="#01aeef"/>
</svg>
