<svg xmlns="http://www.w3.org/2000/svg" width="30" height="33.333" viewBox="0 0 30 33.333">
  <path id="package-variant-closed" d="M33,26.167a1.652,1.652,0,0,1-.883,1.467l-13.167,7.4a1.654,1.654,0,0,1-1.9,0l-13.167-7.4A1.652,1.652,0,0,1,3,26.167v-15A1.652,1.652,0,0,1,3.883,9.7L17.05,2.3a1.654,1.654,0,0,1,1.9,0L32.117,9.7A1.652,1.652,0,0,1,33,11.167v15M18,5.583,14.85,7.367l9.817,5.65,3.267-1.85L18,5.583M8.067,11.167,18,16.75l3.267-1.833-9.8-5.667-3.4,1.917M6.333,25.183l10,5.633V19.633l-10-5.617V25.183m23.333,0V14.017l-10,5.617V30.817Z" transform="translate(-3 -2)" fill="#e41a71"/>
</svg>
